<svg width="450" height="60" viewBox="0 0 450 60" fill="none" xmlns="http://www.w3.org/2000/svg">
<g clip-path="url(#clip0_235_21)">
<path d="M0 0H450L420 60H0V0Z" fill="black"/>
<path d="M59.7148 28.3711V30.3477C59.7148 32.6966 59.4212 34.8021 58.834 36.6641C58.2467 38.526 57.4017 40.1087 56.2988 41.4121C55.196 42.7155 53.8711 43.7109 52.3242 44.3984C50.7917 45.0859 49.0729 45.4297 47.168 45.4297C45.3203 45.4297 43.623 45.0859 42.0762 44.3984C40.5436 43.7109 39.2116 42.7155 38.0801 41.4121C36.9629 40.1087 36.0964 38.526 35.4805 36.6641C34.8646 34.8021 34.5566 32.6966 34.5566 30.3477V28.3711C34.5566 26.0221 34.8574 23.9238 35.459 22.0762C36.0749 20.2142 36.9414 18.6315 38.0586 17.3281C39.1758 16.0104 40.5007 15.0078 42.0332 14.3203C43.5801 13.6328 45.2773 13.2891 47.125 13.2891C49.0299 13.2891 50.7487 13.6328 52.2812 14.3203C53.8281 15.0078 55.153 16.0104 56.2559 17.3281C57.373 18.6315 58.2253 20.2142 58.8125 22.0762C59.4141 23.9238 59.7148 26.0221 59.7148 28.3711ZM55.6113 30.3477V28.3281C55.6113 26.4661 55.418 24.819 55.0312 23.3867C54.6589 21.9544 54.1074 20.7513 53.377 19.7773C52.6465 18.8034 51.7513 18.0658 50.6914 17.5645C49.6458 17.0632 48.457 16.8125 47.125 16.8125C45.8359 16.8125 44.6686 17.0632 43.623 17.5645C42.5918 18.0658 41.7038 18.8034 40.959 19.7773C40.2285 20.7513 39.6628 21.9544 39.2617 23.3867C38.8607 24.819 38.6602 26.4661 38.6602 28.3281V30.3477C38.6602 32.224 38.8607 33.8854 39.2617 35.332C39.6628 36.7643 40.2357 37.9746 40.9805 38.9629C41.7396 39.9368 42.6348 40.6745 43.666 41.1758C44.7116 41.6771 45.8789 41.9277 47.168 41.9277C48.5143 41.9277 49.7103 41.6771 50.7559 41.1758C51.8014 40.6745 52.6823 39.9368 53.3984 38.9629C54.1289 37.9746 54.6803 36.7643 55.0527 35.332C55.4251 33.8854 55.6113 32.224 55.6113 30.3477ZM89.9863 13.7188V45H85.8184L70.0703 20.873V45H65.9238V13.7188H70.0703L85.8828 37.9102V13.7188H89.9863ZM116.713 45H110.182L110.225 41.627H116.713C118.947 41.627 120.809 41.1615 122.299 40.2305C123.788 39.2852 124.906 37.9674 125.65 36.2773C126.41 34.5729 126.789 32.582 126.789 30.3047V28.3926C126.789 26.6022 126.574 25.0124 126.145 23.623C125.715 22.2194 125.085 21.0378 124.254 20.0781C123.423 19.1042 122.406 18.3665 121.203 17.8652C120.014 17.3639 118.646 17.1133 117.1 17.1133H110.053V13.7188H117.1C119.148 13.7188 121.017 14.0625 122.707 14.75C124.397 15.4232 125.851 16.4043 127.068 17.6934C128.3 18.9681 129.245 20.515 129.904 22.334C130.563 24.1387 130.893 26.1725 130.893 28.4355V30.3047C130.893 32.5677 130.563 34.6087 129.904 36.4277C129.245 38.2324 128.293 39.7721 127.047 41.0469C125.815 42.3216 124.326 43.3027 122.578 43.9902C120.845 44.6634 118.89 45 116.713 45ZM112.395 13.7188V45H108.248V13.7188H112.395ZM156.996 41.627V45H140.432V41.627H156.996ZM141.27 13.7188V45H137.123V13.7188H141.27ZM154.805 27.168V30.541H140.432V27.168H154.805ZM156.781 13.7188V17.1133H140.432V13.7188H156.781ZM181.016 35.0527H185.141C184.926 37.0293 184.36 38.7982 183.443 40.3594C182.527 41.9206 181.23 43.1595 179.555 44.0762C177.879 44.9785 175.788 45.4297 173.281 45.4297C171.448 45.4297 169.779 45.0859 168.275 44.3984C166.786 43.7109 165.504 42.737 164.43 41.4766C163.355 40.2018 162.525 38.6764 161.938 36.9004C161.365 35.11 161.078 33.1191 161.078 30.9277V27.8125C161.078 25.6211 161.365 23.6374 161.938 21.8613C162.525 20.071 163.363 18.5384 164.451 17.2637C165.554 15.9889 166.879 15.0078 168.426 14.3203C169.973 13.6328 171.713 13.2891 173.646 13.2891C176.01 13.2891 178.008 13.7331 179.641 14.6211C181.273 15.5091 182.541 16.7409 183.443 18.3164C184.36 19.8776 184.926 21.6895 185.141 23.752H181.016C180.815 22.291 180.443 21.0378 179.898 19.9922C179.354 18.9323 178.581 18.1159 177.578 17.543C176.576 16.9701 175.265 16.6836 173.646 16.6836C172.257 16.6836 171.033 16.9486 169.973 17.4785C168.927 18.0085 168.046 18.7604 167.33 19.7344C166.628 20.7083 166.098 21.8757 165.74 23.2363C165.382 24.597 165.203 26.1081 165.203 27.7695V30.9277C165.203 32.4603 165.361 33.8997 165.676 35.2461C166.005 36.5924 166.499 37.7741 167.158 38.791C167.817 39.8079 168.655 40.61 169.672 41.1973C170.689 41.7702 171.892 42.0566 173.281 42.0566C175.043 42.0566 176.447 41.7773 177.492 41.2188C178.538 40.6602 179.326 39.8581 179.855 38.8125C180.4 37.7669 180.786 36.5137 181.016 35.0527ZM194.938 13.7188V45H190.791V13.7188H194.938ZM213.822 13.7188L200.824 28.3066L193.52 35.8906L192.832 31.4648L198.332 25.4062L208.838 13.7188H213.822ZM209.826 45L198.246 29.7461L200.717 26.459L214.768 45H209.826Z" fill="white"/>
</g>
<defs>
<clipPath id="clip0_235_21">
<rect width="450" height="60" fill="white"/>
</clipPath>
</defs>
</svg>
