<svg width="450" height="60" viewBox="0 0 450 60" fill="none" xmlns="http://www.w3.org/2000/svg">
<g clip-path="url(#clip0_235_2)">
<path fill-rule="evenodd" clip-rule="evenodd" d="M400 60H420L450 30L420 0H400L430 30L400 60Z" fill="#093354"/>
<path d="M-40 0H380L410 30L380 60H-40V0Z" fill="#093354"/>
<path d="M47.168 32.7324H38.8105V29.3594H47.168C48.7865 29.3594 50.097 29.1016 51.0996 28.5859C52.1022 28.0703 52.8327 27.3542 53.291 26.4375C53.7637 25.5208 54 24.4753 54 23.3008C54 22.2266 53.7637 21.2168 53.291 20.2715C52.8327 19.3262 52.1022 18.5671 51.0996 17.9941C50.097 17.4069 48.7865 17.1133 47.168 17.1133H39.7773V45H35.6309V13.7188H47.168C49.5312 13.7188 51.5293 14.127 53.1621 14.9434C54.7949 15.7598 56.0339 16.8913 56.8789 18.3379C57.724 19.7702 58.1465 21.4102 58.1465 23.2578C58.1465 25.263 57.724 26.9746 56.8789 28.3926C56.0339 29.8105 54.7949 30.8919 53.1621 31.6367C51.5293 32.3672 49.5312 32.7324 47.168 32.7324ZM82.3594 41.627V45H66.7188V41.627H82.3594ZM67.5352 13.7188V45H63.3887V13.7188H67.5352ZM99.1172 16.4902L88.7617 45H84.5293L96.4531 13.7188H99.1816L99.1172 16.4902ZM107.797 45L97.4199 16.4902L97.3555 13.7188H100.084L112.051 45H107.797ZM107.26 33.4199V36.8145H89.6855V33.4199H107.26ZM115.66 13.7188L123.781 29.4238L131.924 13.7188H136.629L125.844 33.3125V45H121.697V33.3125L110.912 13.7188H115.66ZM147.199 30.0684V33.334H136.715V30.0684H147.199ZM156.137 13.7188V45H151.99V13.7188H156.137ZM187.74 13.7188V45H183.572L167.824 20.873V45H163.678V13.7188H167.824L183.637 37.9102V13.7188H187.74ZM211.76 37.0938C211.76 36.3633 211.645 35.7188 211.416 35.1602C211.201 34.5872 210.814 34.0716 210.256 33.6133C209.712 33.1549 208.952 32.7181 207.979 32.3027C207.019 31.8874 205.801 31.4648 204.326 31.0352C202.779 30.5768 201.383 30.0684 200.137 29.5098C198.891 28.9368 197.824 28.2852 196.936 27.5547C196.048 26.8242 195.367 25.9863 194.895 25.041C194.422 24.0957 194.186 23.0143 194.186 21.7969C194.186 20.5794 194.436 19.4551 194.938 18.4238C195.439 17.3926 196.155 16.4974 197.086 15.7383C198.031 14.9648 199.156 14.3633 200.459 13.9336C201.762 13.5039 203.216 13.2891 204.82 13.2891C207.169 13.2891 209.16 13.7402 210.793 14.6426C212.44 15.5306 213.693 16.6979 214.553 18.1445C215.412 19.5768 215.842 21.1094 215.842 22.7422H211.717C211.717 21.5677 211.466 20.5293 210.965 19.627C210.464 18.7103 209.704 17.9941 208.688 17.4785C207.671 16.9486 206.382 16.6836 204.82 16.6836C203.345 16.6836 202.128 16.9056 201.168 17.3496C200.208 17.7936 199.492 18.3952 199.02 19.1543C198.561 19.9134 198.332 20.7799 198.332 21.7539C198.332 22.4128 198.468 23.0143 198.74 23.5586C199.027 24.0885 199.464 24.5827 200.051 25.041C200.652 25.4993 201.411 25.9219 202.328 26.3086C203.259 26.6953 204.369 27.0677 205.658 27.4258C207.434 27.9271 208.967 28.4857 210.256 29.1016C211.545 29.7174 212.605 30.4121 213.436 31.1855C214.281 31.9447 214.904 32.8112 215.305 33.7852C215.72 34.7448 215.928 35.8333 215.928 37.0508C215.928 38.3255 215.67 39.4785 215.154 40.5098C214.639 41.541 213.901 42.4219 212.941 43.1523C211.982 43.8828 210.829 44.4486 209.482 44.8496C208.15 45.2363 206.661 45.4297 205.014 45.4297C203.567 45.4297 202.142 45.2292 200.738 44.8281C199.349 44.4271 198.081 43.8255 196.936 43.0234C195.804 42.2214 194.895 41.2331 194.207 40.0586C193.534 38.8698 193.197 37.4948 193.197 35.9336H197.322C197.322 37.0078 197.53 37.9316 197.945 38.7051C198.361 39.4642 198.926 40.0944 199.643 40.5957C200.373 41.097 201.197 41.4694 202.113 41.7129C203.044 41.9421 204.011 42.0566 205.014 42.0566C206.46 42.0566 207.685 41.8561 208.688 41.4551C209.69 41.054 210.449 40.4811 210.965 39.7363C211.495 38.9915 211.76 38.1107 211.76 37.0938Z" fill="white"/>
</g>
<defs>
<clipPath id="clip0_235_2">
<rect width="450" height="60" fill="white"/>
</clipPath>
</defs>
</svg>
